<svg width="179" height="29" fill="none" xmlns="http://www.w3.org/2000/svg"><path d="M15.601 11.209a1.87 1.87 0 0 1 .885-.562 1.816 1.816 0 0 1 1.39.187l6.948 3.964 2.968-1.717c.253-.156.443-.374.537-.686.063-.281.032-.593-.126-.843l-3.822-6.555a1.2 1.2 0 0 0-.694-.53 1.163 1.163 0 0 0-.853.125L12.569 10.46a1.19 1.19 0 0 0-.537.686c-.031.156-.031.312-.031.468a4.06 4.06 0 0 1 2.21-.624c.506 0 .98.063 1.39.219Z" fill="#fff"/><path d="m27.792 17.295-2.968-1.717-.348-.187-.347-.187-6.601-3.746a1.163 1.163 0 0 0-.853-.125.864.864 0 0 0-.379.188c.095.062.158.093.253.156.126.062.22.156.347.25.253.187.474.405.663.655.443.53.758 1.186.885 1.873.82.187 1.421.905 1.421 1.748v7.928l2.969 1.716c.253.156.568.188.853.125.284-.062.537-.25.694-.53l3.854-6.586c.284-.562.094-1.249-.443-1.561Z" fill="#fff"/><path d="M18.507 15.173v.28c0 .157-.032.282-.064.438-.063.312-.126.624-.252.905-.253.624-.695 1.186-1.2 1.623.094.312.126.686.031.999-.126.468-.442.842-.852 1.092L9.22 24.474v3.402c0 .624.505 1.124 1.137 1.124h7.675c.631 0 1.137-.5 1.137-1.124V16.14c0-.405-.284-.78-.663-.967Z" fill="#fff"/><path d="M16.39 18.856c-.094.062-.189.093-.252.125-.126.062-.253.124-.379.156-.284.093-.568.187-.853.218-.22.031-.41.063-.631.063-.506 0-1.011-.094-1.453-.25-.221.28-.537.468-.916.562-.158.03-.316.062-.474.062-.316 0-.632-.094-.916-.25l-6.948-3.964-2.969 1.717a1.189 1.189 0 0 0-.537.687c-.063.28-.031.593.127.843l3.853 6.585a1.2 1.2 0 0 0 .695.531c.284.062.6.031.852-.125l3-1.716.348-.188.348-.187 6.6-3.746a1.19 1.19 0 0 0 .537-.686c-.031-.156-.031-.312-.031-.437Z" fill="#fff"/><path d="M11.874 18.7c-.095-.063-.22-.156-.316-.219-.19-.156-.379-.343-.568-.53-.474-.562-.821-1.218-.948-1.936-.852-.156-1.516-.874-1.516-1.779V6.308L5.558 4.591a1.193 1.193 0 0 0-.569-.156c-.095 0-.19 0-.284.032-.284.062-.537.25-.695.53L.157 11.583c-.158.25-.19.562-.127.843.064.28.253.53.537.687l2.97 1.716.347.187.347.188 6.601 3.745c.253.156.568.188.853.125.158-.031.284-.125.41-.218-.063-.063-.126-.094-.22-.156ZM12.222 9.866l4.832-2.746-4.832 2.746Z" fill="#fff"/><path d="M18.033 1.376h-7.675c-.632 0-1.137.5-1.137 1.124v11.736c0 .468.316.874.758 1.03v-.281c0-.125.032-.25.032-.374.031-.25.095-.5.158-.718A4.333 4.333 0 0 1 11.4 12.05a1.835 1.835 0 0 1-.063-1.092c.127-.468.442-.843.853-1.093l4.832-2.746 2.116-1.218V2.5c.032-.624-.474-1.124-1.105-1.124ZM41.831 26.385c-1.474-.364-2.64-.849-3.5-1.395l1.78-3.79c.83.515 1.812.94 2.98 1.273 1.166.334 2.302.485 3.438.485 2.273 0 3.409-.546 3.409-1.668 0-.515-.307-.88-.921-1.122-.615-.212-1.567-.424-2.856-.576-1.505-.212-2.764-.485-3.746-.789a5.944 5.944 0 0 1-2.55-1.546c-.705-.759-1.074-1.82-1.074-3.185 0-1.152.338-2.183 1.013-3.063.676-.88 1.659-1.577 2.948-2.093 1.29-.485 2.825-.758 4.576-.758 1.29 0 2.61.152 3.9.425s2.364.667 3.224 1.183l-1.781 3.76c-1.628-.91-3.409-1.364-5.313-1.364-1.136 0-1.996.151-2.579.485-.583.303-.86.728-.86 1.213 0 .576.307.97.921 1.183.615.212 1.597.455 2.948.637 1.505.242 2.733.515 3.716.788a5.47 5.47 0 0 1 2.518 1.547c.706.758 1.075 1.79 1.075 3.124a4.792 4.792 0 0 1-1.044 3.032c-.676.88-1.69 1.578-3.01 2.063-1.32.485-2.886.728-4.698.728a20.444 20.444 0 0 1-4.514-.577ZM86.725 10.16c1.351 1.334 2.057 3.366 2.057 6.066v10.432H83.41v-9.644c0-1.456-.308-2.517-.922-3.245-.614-.698-1.474-1.062-2.58-1.062-1.258 0-2.24.395-2.978 1.214-.737.788-1.105 2.001-1.105 3.578v9.16H70.48v-9.645c0-2.881-1.167-4.306-3.5-4.306-1.229 0-2.212.394-2.949 1.213-.737.788-1.105 2.001-1.105 3.578v9.16h-5.343V8.4h5.128v2.093a6.72 6.72 0 0 1 2.518-1.76c.983-.394 2.088-.606 3.286-.606 1.29 0 2.487.243 3.53.758 1.045.516 1.905 1.244 2.55 2.214a7.86 7.86 0 0 1 2.855-2.214 9.288 9.288 0 0 1 3.808-.788c2.272.06 4.115.728 5.466 2.062ZM111.751 8.431V26.69h-5.128v-2.123c-1.32 1.577-3.255 2.365-5.773 2.365-1.75 0-3.316-.394-4.729-1.152-1.412-.759-2.518-1.88-3.316-3.276-.798-1.425-1.198-3.063-1.198-4.943 0-1.88.4-3.518 1.198-4.944.798-1.425 1.904-2.517 3.316-3.275 1.413-.758 2.979-1.153 4.729-1.153 2.365 0 4.207.728 5.528 2.214v-1.94h5.373v-.03Zm-6.602 12.799c.891-.91 1.351-2.154 1.351-3.67 0-1.547-.46-2.76-1.351-3.67-.89-.91-2.026-1.365-3.378-1.365-1.381 0-2.517.455-3.408 1.365-.89.91-1.351 2.153-1.351 3.67 0 1.547.46 2.76 1.351 3.67.89.91 2.027 1.364 3.408 1.364 1.382 0 2.488-.455 3.378-1.364ZM123.604 8.825c1.075-.454 2.334-.667 3.746-.667v4.883c-.583-.03-.982-.06-1.197-.06-1.535 0-2.733.424-3.593 1.273-.86.85-1.29 2.123-1.29 3.822v8.613h-5.343V8.43h5.129v2.396c.614-.88 1.473-1.547 2.548-2.002ZM140.892 25.779c-.522.394-1.167.667-1.934.88-.768.181-1.566.303-2.395.303-2.211 0-3.931-.546-5.128-1.668-1.198-1.123-1.781-2.73-1.781-4.883V4.397h5.343v4.428h4.606v4.064h-4.576v7.43c0 .759.184 1.365.584 1.79.399.425.952.637 1.689.637.829 0 1.566-.212 2.21-.667l1.382 3.7ZM168.867 1.486v25.172h-5.129v-2.092c-1.32 1.577-3.255 2.365-5.773 2.365-1.75 0-3.316-.394-4.728-1.152-1.413-.758-2.518-1.88-3.317-3.276-.798-1.425-1.197-3.063-1.197-4.943 0-1.88.399-3.518 1.197-4.943.799-1.426 1.904-2.518 3.317-3.276 1.412-.758 2.978-1.152 4.728-1.152 2.365 0 4.207.727 5.528 2.213V1.547h5.374v-.06Zm-6.603 19.744c.891-.91 1.352-2.154 1.352-3.67 0-1.547-.461-2.76-1.352-3.67-.89-.91-2.026-1.365-3.377-1.365-1.382 0-2.518.455-3.409 1.365-.89.91-1.351 2.154-1.351 3.67 0 1.547.461 2.76 1.351 3.67.891.91 2.027 1.364 3.409 1.364 1.351 0 2.487-.454 3.377-1.364ZM173.288 5.034c-.614-.576-.921-1.273-.921-2.092 0-.85.307-1.547.921-2.093.615-.576 1.413-.849 2.396-.849.982 0 1.781.273 2.395.819.614.546.921 1.213.921 2.032 0 .88-.307 1.607-.921 2.183-.614.577-1.413.88-2.395.88-.983-.03-1.781-.334-2.396-.88Zm-.276 3.397h5.343V26.69h-5.343V8.43Z" fill="#fff"/></svg>