<svg width="183" height="30" fill="none" xmlns="http://www.w3.org/2000/svg"><path d="m28.702 11.96-3.83-6.62c-.189-.345-.503-.565-.88-.69-.376-.094-.784-.063-1.098.157L12.69 10.705c-.345.188-.565.502-.69.879-.095.376-.063.784.156 1.098l.283.47.408-.25a3.261 3.261 0 0 1 3.296 0l.409.25.282-.47c.063-.126.188-.189.314-.22.125-.031.251-.031.377.063l6.592 3.796 4.113-2.353a1.514 1.514 0 0 0 .47-2.008Z" fill="#B5179E"/><path d="m28.168 17.576-10.203-5.898a1.5 1.5 0 0 0-1.099-.157c-.376.094-.69.345-.879.69l-.25.47.407.252a3.306 3.306 0 0 1 1.633 2.855v.47h.534c.282 0 .502.22.502.502v7.593l4.112 2.353c.22.125.471.188.722.188.126 0 .252-.031.377-.063.377-.094.69-.345.88-.69l3.83-6.62c.376-.627.125-1.537-.566-1.945Z" fill="#7209B7"/><path d="M18.28 15.286h-.535v.47c0 1.161-.628 2.26-1.632 2.824l-.408.25.282.472a.54.54 0 0 1 .063.376.575.575 0 0 1-.22.314l-6.592 3.796v4.737c0 .816.66 1.475 1.475 1.475h7.629c.816 0 1.475-.659 1.475-1.475V16.76c-.062-.816-.722-1.474-1.538-1.474Z" fill="#3F37C9"/><path d="m16.804 18.83-.283-.438-.408.25a3.261 3.261 0 0 1-3.296 0l-.408-.25-.283.47c-.063.126-.188.189-.314.22-.125.031-.251.031-.377-.063l-6.592-3.796L.73 17.576a1.474 1.474 0 0 0-.533 2.008l3.83 6.62c.188.345.502.564.879.69.125.031.25.063.376.063.251 0 .503-.063.722-.189l10.203-5.898c.345-.188.565-.502.69-.878a1.36 1.36 0 0 0-.093-1.161Z" fill="#4361EE"/><path d="M12.817 18.611a3.306 3.306 0 0 1-1.633-2.855v-.47h-.533a.496.496 0 0 1-.503-.502V7.19L6.036 4.838a1.5 1.5 0 0 0-1.099-.157c-.377.095-.69.346-.879.69l-3.83 6.62c-.408.69-.157 1.6.534 2.008l10.202 5.899c.22.125.471.188.723.188.125 0 .25-.031.376-.063.377-.094.69-.345.88-.69l.282-.47-.408-.252Z" fill="#4CC9F0"/><path d="m12.691 10.705 7.064-4.078V3.019c0-.816-.66-1.475-1.476-1.475H10.65c-.816 0-1.475.659-1.475 1.475v11.765c0 .815.66 1.474 1.475 1.474h.534v-.565a3.313 3.313 0 0 1 1.256-2.478l-.031-.031-.283-.471a1.497 1.497 0 0 1-.157-1.098c.126-.377.377-.69.722-.91Z" fill="#FF0096"/><path d="M14.512 20.023a4.237 4.237 0 0 0 4.238-4.235 4.237 4.237 0 0 0-4.238-4.236 4.237 4.237 0 0 0-4.238 4.236 4.237 4.237 0 0 0 4.238 4.235Z" fill="#fff"/><path d="M42.766 27.295c-1.507-.376-2.7-.878-3.579-1.443l1.82-3.922c.849.534 1.853.973 3.046 1.318a12.53 12.53 0 0 0 3.516.502c2.323 0 3.485-.565 3.485-1.726 0-.533-.314-.91-.942-1.16-.628-.22-1.601-.44-2.92-.597-1.538-.22-2.825-.502-3.83-.815a6.067 6.067 0 0 1-2.605-1.6c-.722-.785-1.099-1.883-1.099-3.295 0-1.192.345-2.259 1.036-3.168.69-.91 1.695-1.632 3.014-2.165 1.318-.502 2.888-.785 4.677-.785 1.319 0 2.669.157 3.987.44 1.319.282 2.418.69 3.297 1.223l-1.821 3.89c-1.664-.94-3.485-1.411-5.431-1.411-1.162 0-2.04.157-2.637.502-.597.313-.88.753-.88 1.255 0 .596.315 1.004.943 1.223.627.22 1.632.47 3.013.66 1.538.25 2.794.532 3.799.815a5.583 5.583 0 0 1 2.574 1.6c.722.784 1.099 1.851 1.099 3.231 0 1.161-.346 2.197-1.068 3.138-.69.91-1.726 1.631-3.076 2.133s-2.951.753-4.803.753a20.67 20.67 0 0 1-4.615-.596ZM88.663 10.51c1.381 1.38 2.103 3.483 2.103 6.275v10.793h-5.494V17.6c0-1.506-.314-2.604-.941-3.357-.628-.722-1.507-1.098-2.637-1.098-1.288 0-2.292.407-3.046 1.254-.753.816-1.13 2.071-1.13 3.703v9.474h-5.462v-9.976c0-2.98-1.193-4.455-3.579-4.455-1.256 0-2.26.407-3.014 1.254-.753.816-1.13 2.071-1.13 3.703v9.474h-5.462V8.69h5.242v2.165a6.871 6.871 0 0 1 2.575-1.82c1.004-.407 2.134-.627 3.359-.627 1.318 0 2.543.251 3.61.784 1.067.534 1.946 1.287 2.606 2.29a8.047 8.047 0 0 1 2.92-2.29 9.402 9.402 0 0 1 3.892-.815c2.323.062 4.207.753 5.588 2.133ZM114.249 8.722v18.887h-5.243v-2.196c-1.35 1.631-3.328 2.447-5.902 2.447-1.79 0-3.39-.408-4.835-1.192-1.444-.785-2.574-1.945-3.39-3.389-.816-1.474-1.225-3.168-1.225-5.113 0-1.946.409-3.64 1.225-5.114.816-1.475 1.946-2.604 3.39-3.389 1.444-.784 3.045-1.192 4.835-1.192 2.417 0 4.301.753 5.651 2.29V8.753h5.494v-.031Zm-6.75 13.24c.91-.942 1.381-2.228 1.381-3.796 0-1.6-.471-2.856-1.381-3.797-.91-.941-2.072-1.412-3.453-1.412-1.413 0-2.575.471-3.485 1.412-.91.941-1.381 2.228-1.381 3.797 0 1.6.47 2.854 1.381 3.796.91.94 2.072 1.412 3.485 1.412 1.412 0 2.543-.471 3.453-1.412ZM126.366 9.13c1.099-.47 2.386-.69 3.83-.69v5.05c-.596-.03-1.004-.062-1.224-.062-1.57 0-2.794.44-3.673 1.318-.879.878-1.319 2.196-1.319 3.953v8.91h-5.462V8.722h5.243V11.2c.628-.91 1.507-1.6 2.605-2.07ZM144.041 26.668c-.534.408-1.193.69-1.978.91-.785.188-1.601.313-2.449.313-2.26 0-4.018-.564-5.242-1.725-1.225-1.161-1.821-2.824-1.821-5.051V4.549h5.462v4.58h4.709v4.205h-4.677v7.687c0 .784.188 1.411.596 1.85.408.44.973.66 1.727.66.847 0 1.601-.22 2.26-.69l1.413 3.827ZM172.64 1.537v26.04h-5.243v-2.164c-1.349 1.631-3.327 2.447-5.901 2.447-1.79 0-3.391-.408-4.835-1.192-1.444-.785-2.574-1.945-3.391-3.389-.816-1.474-1.224-3.168-1.224-5.113 0-1.946.408-3.64 1.224-5.114.817-1.475 1.947-2.604 3.391-3.389 1.444-.784 3.045-1.192 4.835-1.192 2.417 0 4.3.753 5.65 2.29v-9.16h5.494v-.064Zm-6.749 20.425c.91-.942 1.381-2.228 1.381-3.796 0-1.6-.471-2.856-1.381-3.797-.911-.941-2.072-1.412-3.454-1.412-1.412 0-2.574.471-3.484 1.412-.911.941-1.382 2.228-1.382 3.797 0 1.6.471 2.854 1.382 3.796.91.94 2.072 1.412 3.484 1.412 1.382 0 2.543-.471 3.454-1.412ZM177.161 5.208c-.628-.596-.942-1.318-.942-2.165 0-.878.314-1.6.942-2.165.628-.596 1.444-.878 2.448-.878 1.005 0 1.821.282 2.449.847.628.565.942 1.255.942 2.102 0 .91-.314 1.663-.942 2.26-.628.595-1.444.909-2.449.909-1.004-.031-1.82-.345-2.448-.91Zm-.283 3.514h5.463v18.887h-5.463V8.722Z" fill="#121212"/></svg>